<svg width="16" height="16" viewBox="0 0 16 16" fill="none" xmlns="http://www.w3.org/2000/svg">
<path d="M11.9993 6.66797H3.99935C3.26297 6.66797 2.66602 7.26492 2.66602 8.0013V12.0013C2.66602 12.7377 3.26297 13.3346 3.99935 13.3346H11.9993C12.7357 13.3346 13.3327 12.7377 13.3327 12.0013V8.0013C13.3327 7.26492 12.7357 6.66797 11.9993 6.66797Z" stroke="#14264A" stroke-width="1.06667"/>
<path d="M5.33398 6.66667V4.66667C5.33398 3.95942 5.61494 3.28115 6.11503 2.78105C6.61513 2.28095 7.29341 2 8.00065 2C8.7079 2 9.38617 2.28095 9.88627 2.78105C10.3864 3.28115 10.6673 3.95942 10.6673 4.66667V6.66667" stroke="#14264A" stroke-width="1.06667"/>
</svg>
