<svg width="22" height="22" viewBox="0 0 22 22" fill="none" xmlns="http://www.w3.org/2000/svg">
<path d="M16.4974 8.25H5.4974C4.48487 8.25 3.66406 9.07081 3.66406 10.0833V16.5C3.66406 17.5125 4.48487 18.3333 5.4974 18.3333H16.4974C17.5099 18.3333 18.3307 17.5125 18.3307 16.5V10.0833C18.3307 9.07081 17.5099 8.25 16.4974 8.25Z" stroke="#10A28D" stroke-width="1.83333"/>
<path d="M7.33594 8.25V6.41667C7.33594 5.44421 7.72225 4.51158 8.40988 3.82394C9.09751 3.13631 10.0301 2.75 11.0026 2.75C11.9751 2.75 12.9077 3.13631 13.5953 3.82394C14.283 4.51158 14.6693 5.44421 14.6693 6.41667V8.25" stroke="#10A28D" stroke-width="1.83333"/>
</svg>
