<svg width="20" height="20" viewBox="0 0 20 20" fill="none" xmlns="http://www.w3.org/2000/svg">
<mask id="mask0_162896_2602" style="mask-type:alpha" maskUnits="userSpaceOnUse" x="0" y="0" width="20" height="20">
<rect width="20" height="20" fill="#D9D9D9"/>
</mask>
<g mask="url(#mask0_162896_2602)">
<path d="M3.22917 15.2708C2.74306 14.7847 2.5 14.1944 2.5 13.5H1V5C1 4.5875 1.14688 4.23438 1.44063 3.94063C1.73438 3.64688 2.0875 3.5 2.5 3.5H14V6.5H16.5L19 10V13.5H17.5C17.5 14.1944 17.2569 14.7847 16.7708 15.2708C16.2847 15.7569 15.6944 16 15 16C14.3056 16 13.7153 15.7569 13.2292 15.2708C12.7431 14.7847 12.5 14.1944 12.5 13.5H7.5C7.5 14.1944 7.25694 14.7847 6.77083 15.2708C6.28472 15.7569 5.69444 16 5 16C4.30556 16 3.71528 15.7569 3.22917 15.2708ZM5.70833 14.2083C5.90278 14.0139 6 13.7778 6 13.5C6 13.2222 5.90278 12.9861 5.70833 12.7917C5.51389 12.5972 5.27778 12.5 5 12.5C4.72222 12.5 4.48611 12.5972 4.29167 12.7917C4.09722 12.9861 4 13.2222 4 13.5C4 13.7778 4.09722 14.0139 4.29167 14.2083C4.48611 14.4028 4.72222 14.5 5 14.5C5.27778 14.5 5.51389 14.4028 5.70833 14.2083ZM2.5 12H3C3.23611 11.6806 3.52778 11.434 3.875 11.2604C4.22222 11.0868 4.59722 11 5 11C5.40278 11 5.77778 11.0868 6.125 11.2604C6.47222 11.434 6.76063 11.6806 6.99021 12H12.5V5H2.5V12ZM15.7083 14.2083C15.9028 14.0139 16 13.7778 16 13.5C16 13.2222 15.9028 12.9861 15.7083 12.7917C15.5139 12.5972 15.2778 12.5 15 12.5C14.7222 12.5 14.4861 12.5972 14.2917 12.7917C14.0972 12.9861 14 13.2222 14 13.5C14 13.7778 14.0972 14.0139 14.2917 14.2083C14.4861 14.4028 14.7222 14.5 15 14.5C15.2778 14.5 15.5139 14.4028 15.7083 14.2083ZM14 10.5L17.5 10.4792L15.7292 8H14V10.5Z" fill="#225E3F"/>
</g>
</svg>
