<svg width="22" height="22" viewBox="0 0 22 22" fill="none" xmlns="http://www.w3.org/2000/svg">
<path d="M11 19.25C15.5563 19.25 19.25 15.5563 19.25 11C19.25 6.44365 15.5563 2.75 11 2.75C6.44365 2.75 2.75 6.44365 2.75 11C2.75 15.5563 6.44365 19.25 11 19.25Z" stroke="#10A28D" stroke-width="1.83333"/>
<path d="M8.71094 8.2526C8.71094 7.64482 8.95238 7.06192 9.38215 6.63215C9.81192 6.20238 10.3948 5.96094 11.0026 5.96094C11.6104 5.96094 12.1933 6.20238 12.6231 6.63215C13.0528 7.06192 13.2943 7.64482 13.2943 8.2526C13.2943 10.0859 11.0026 10.0859 11.0026 11.9193M11.0026 15.5859H11.0118" stroke="#10A28D" stroke-width="1.83333"/>
</svg>
